<svg xmlns="http://www.w3.org/2000/svg" width="418" height="422" fill="none"><path d="M207.491 377.138c72.259 0 130.837-58.577 130.837-130.837 0-72.259-58.578-130.837-130.837-130.837-72.259 0-130.837 58.578-130.837 130.837 0 72.26 58.578 130.837 130.837 130.837Z" fill="#DCDDDE"></path><path d="M328.661 321.752c-.307 0-.613 0-.92-.023-15.278-.684-20.867-12.945-20.984-24.192-.189-15.538-.92-32.939-1.344-41.639-13.629 2.24-48.289 7.45-63.167 4.857-7.31-1.273-15.114-6.696-19.877-13.841-3.584-5.376-7.286-14.312-4.551-26.384 1.58-6.979 5.565-19.452 7.239-24.593l-5.494-8.37a2.802 2.802 0 0 1-.259-.448c-3.301-6.39-3.254-13.345.118-19.075l24.191-40.979c6.697-11.742 24.663-17.614 40.885-13.322 19.005 5.046 28.318 19.664 24.923 39.117-.92 5.21-4.952 18.91-9.243 33.434-2.428 8.252-4.928 16.717-6.649 22.965 9.007-.872 24.357-2.287 32.845-2.805 7.262-.472 13.51 1.579 18.085 5.894 4.55 4.291 7.05 10.61 7.026 17.826 0 5.965.047 12.025.094 18.108.142 18.698.307 38.032-1.202 55.763-.802 9.502-11.011 17.707-21.716 17.707Zm-18.556-76.653c1.108 0 2.193.377 3.089 1.084a5.118 5.118 0 0 1 1.886 3.631c.023.26 1.367 25.748 1.627 47.629.118 11.459 6.295 14.124 11.482 14.359 5.541.26 11.931-4.149 12.308-8.559 1.462-17.259 1.321-36.358 1.156-54.843-.047-6.107-.095-12.19-.095-18.203 0-4.503-1.344-8.158-3.914-10.587-2.522-2.381-6.224-3.489-10.657-3.206-12.072.754-39.282 3.442-39.541 3.466a4.955 4.955 0 0 1-4.221-1.651c-.047-.071-.118-.141-.165-.212-.754 5.588-3.772 10.87-8.771 14.312-3.466 2.405-9.526 4.527-16.104 3.278-5.258-.991-9.691-3.985-12.803-8.654l-13.299-20.301c-1.697 5.447-3.631 11.907-4.55 16.057-1.957 8.653.613 14.925 3.136 18.674 3.772 5.636 9.549 8.913 13.322 9.573 16.599 2.877 64.793-5.706 65.288-5.8.236-.024.543-.047.826-.047Zm-82.077-62.743 25.63 39.117c1.603 2.405 3.772 3.89 6.39 4.386 3.324.636 6.767-.425 8.582-1.698 4.904-3.395 6.178-10.162 2.806-15.043-.047-.071-.118-.165-.165-.236l-15.633-25.795a5.012 5.012 0 0 1 .189-5.446l16.623-23.579 8.134 5.73-14.76 20.914 13.864 22.895a20.632 20.632 0 0 1 3.113 7.332c1.65-6.437 4.668-16.67 7.851-27.421 4.009-13.605 8.182-27.658 8.984-32.327 3.207-18.249-7.828-25.181-17.66-27.799-11.86-3.136-25.206.755-29.733 8.701l-24.239 41.026c-.754 1.274-2.24 4.693.024 9.243Z" fill="#424143"></path><path d="M150.879 320.078a22.111 22.111 0 0 1-17.283-8.299c-7.498-9.432-6.131-22.871 3.089-30.605l.306-.259c.212-.189.448-.354.684-.496l36.759-21.715 45.554-43.809 6.885 7.168-45.955 44.209c-.283.26-.589.495-.92.708l-36.9 21.81c-5.116 4.362-5.824 11.695-1.721 16.811 4.15 5.211 11.789 6.083 17 1.934.189-.142.377-.283.566-.401l46.803-27.469 34.213-27.634 6.248 7.734-34.495 27.869c-.189.165-.401.283-.614.425l-46.826 27.492a22.012 22.012 0 0 1-13.393 4.527Zm151.704-210.721c-20.702 0-37.56-16.858-37.56-37.56s16.858-37.561 37.56-37.561 37.561 16.859 37.561 37.56c0 20.703-16.859 37.561-37.561 37.561Zm0-65.17c-15.232 0-27.61 12.378-27.61 27.61 0 15.231 12.378 27.61 27.61 27.61s27.611-12.379 27.611-27.61c0-15.232-12.379-27.61-27.611-27.61Z" fill="#424143"></path><path d="M230.339 94.503c-.307 0-.613-.024-.92-.071a152.82 152.82 0 0 0-27.28-1.674 6.12 6.12 0 0 1-6.296-5.965 6.12 6.12 0 0 1 5.966-6.296c9.832-.283 19.758.33 29.449 1.816 3.348.518 5.659 3.63 5.14 6.979a6.147 6.147 0 0 1-6.059 5.21ZM54.349 220.506c-.19 0-.378 0-.566-.023-3.372-.307-5.848-3.301-5.541-6.673 2.098-22.588 9.36-43.832 21.621-63.12 20.396-32.09 52.062-54.301 89.174-62.577a6.16 6.16 0 0 1 7.333 4.645 6.161 6.161 0 0 1-4.645 7.333c-33.929 7.568-62.884 27.87-81.51 57.178-11.2 17.613-17.85 37.018-19.76 57.673-.283 3.183-2.97 5.564-6.106 5.564Z" fill="#00B9CC"></path></svg>