<svg xmlns="http://www.w3.org/2000/svg" width="418" height="422" fill="none"><path d="M209.165 362.19c72.259 0 130.837-58.578 130.837-130.838 0-72.259-58.578-130.837-130.837-130.837-72.259 0-130.837 58.578-130.837 130.837 0 72.26 58.578 130.838 130.837 130.838Z" fill="#E0E1E2"></path><path d="M51.401 233.357h-.07c-3.396-.048-6.107-2.83-6.06-6.202a165.243 165.243 0 0 1 2.97-29.355c.637-3.324 3.867-5.494 7.192-4.857 3.325.637 5.494 3.867 4.857 7.191a154.276 154.276 0 0 0-2.758 27.187c-.048 3.324-2.783 6.036-6.13 6.036Zm121.783 152.576c-.259 0-.542-.023-.825-.047-22.494-2.994-43.432-11.105-62.2-24.121-31.242-21.645-52.203-54.183-58.994-91.579-.613-3.324 1.604-6.531 4.952-7.144 3.348-.613 6.531 1.603 7.144 4.951 6.201 34.189 25.347 63.898 53.901 83.681 17.165 11.883 36.287 19.31 56.824 22.022 3.348.448 5.729 3.537 5.281 6.885-.424 3.089-3.041 5.352-6.083 5.352Z" fill="#00B9CC"></path><path d="M187.308 42.206c-3.844 0-7.286 1.485-9.95 3.866-2.641-2.381-6.107-3.866-9.951-3.866-3.843 0-7.285 1.485-9.95 3.866-2.64-2.381-6.106-3.866-9.95-3.866-8.229 0-14.901 6.696-14.901 14.901v39.754c0 24.451 5.022 36.381 20.371 47.322-.188 42.724-5.163 78.28-8.134 99.69-1.368 9.879-2.287 16.387-2.287 20.159 0 17.472 12.496 26.62 24.851 26.62 12.356 0 24.852-9.148 24.852-26.62 0-3.772-.919-10.304-2.287-20.159-2.994-21.41-7.946-56.966-8.134-99.69 15.349-10.964 20.371-22.895 20.371-47.322V57.107c0-8.229-6.696-14.901-14.901-14.901Zm4.951 54.655c0 24.38-5.611 32.208-18.155 40.602a4.949 4.949 0 0 0-2.217 4.126c0 44.563 5.164 81.558 8.253 103.675 1.226 8.771 2.193 15.703 2.193 18.792 0 11.53-7.498 16.693-14.902 16.693-7.427 0-14.902-5.163-14.902-16.693 0-3.089.967-10.021 2.193-18.792 3.089-22.093 8.253-59.088 8.253-103.675a4.917 4.917 0 0 0-2.217-4.126c-12.567-8.371-18.155-16.222-18.155-40.602V57.107c0-2.735 2.24-4.975 4.975-4.975 2.735 0 4.975 2.24 4.975 4.975v39.754a4.976 4.976 0 0 0 9.95 0V57.107c0-2.735 2.24-4.975 4.975-4.975 2.735 0 4.975 2.24 4.975 4.975v39.754a4.977 4.977 0 0 0 4.975 4.975 4.976 4.976 0 0 0 4.975-4.975V57.107c0-2.735 2.24-4.975 4.975-4.975 2.736 0 4.976 2.24 4.976 4.975v39.754h-.095Zm106.599-37.797c-8.465-10.87-19.853-16.858-32.043-16.858-12.191 0-23.555 5.988-32.044 16.858-8.181 10.516-12.685 24.404-12.685 39.14 0 23.744 14.737 43.22 30.228 51.449-.566 40.296-5.235 73.919-8.064 94.243-1.368 9.88-2.287 16.411-2.287 20.183 0 17.472 12.496 26.621 24.852 26.621 12.355 0 24.851-9.149 24.851-26.621 0-3.772-.896-10.303-2.287-20.183-2.829-20.301-7.498-53.947-8.064-94.243 15.491-8.205 30.228-27.705 30.228-51.448 0-14.737-4.504-28.648-12.685-39.14Zm2.735 39.14c0 21.009-13.723 37.915-27.257 43.786a4.965 4.965 0 0 0-2.994 4.598c.377 42.323 5.281 77.597 8.205 98.676 1.226 8.771 2.193 15.727 2.193 18.792 0 11.53-7.498 16.693-14.902 16.693-7.427 0-14.902-5.163-14.902-16.693 0-3.089.967-10.021 2.193-18.792 2.924-21.079 7.828-56.353 8.206-98.676a4.92 4.92 0 0 0-2.995-4.598c-13.558-5.848-27.28-22.777-27.257-43.785 0-12.52 3.749-24.263 10.587-33.034 6.555-8.394 15.138-13.039 24.192-13.039s17.636 4.622 24.191 13.039c6.791 8.771 10.54 20.49 10.54 33.034Z" fill="#424143"></path></svg>