<svg xmlns="http://www.w3.org/2000/svg" width="418" height="422" fill="none"><path d="M189.17 353.018c72.26 0 130.838-58.578 130.838-130.838 0-72.259-58.578-130.837-130.838-130.837-72.259 0-130.837 58.578-130.837 130.837 0 72.26 58.578 130.838 130.837 130.838Z" fill="#DCDDDE"></path><path d="M323.639 84.364H170.661a5.102 5.102 0 0 1-5.093-5.093 5.102 5.102 0 0 1 5.093-5.093h153.001a5.102 5.102 0 0 1 5.093 5.093c0 2.806-2.287 5.093-5.116 5.093Zm0 193.768H170.661a5.102 5.102 0 0 1-5.093-5.093 5.102 5.102 0 0 1 5.093-5.093h153.001a5.102 5.102 0 0 1 5.093 5.093c0 2.806-2.287 5.093-5.116 5.093Z" fill="#424143"></path><path d="M323.639 155.76a5.102 5.102 0 0 1-5.093-5.093V69.061c0-8.44-6.862-15.302-15.303-15.302H191.057c-8.441 0-15.303 6.861-15.303 15.302v20.396a5.102 5.102 0 0 1-5.093 5.093 5.102 5.102 0 0 1-5.093-5.093V69.062c0-14.053 11.436-25.489 25.489-25.489h112.186c14.053 0 25.489 11.436 25.489 25.488v81.606c.023 2.806-2.264 5.093-5.093 5.093Zm-20.396 152.977H191.057c-14.053 0-25.489-11.435-25.489-25.488v-91.791a5.102 5.102 0 0 1 5.093-5.093 5.102 5.102 0 0 1 5.093 5.093v91.791c0 8.441 6.862 15.302 15.303 15.302h112.186c8.441 0 15.303-6.861 15.303-15.302v-30.605a5.102 5.102 0 0 1 5.093-5.093 5.102 5.102 0 0 1 5.093 5.093v30.605c.023 14.053-11.412 25.488-25.489 25.488Z" fill="#424143"></path><path d="M272.662 257.737c-.66 0-1.32-.118-1.957-.401a5.086 5.086 0 0 1-3.16-4.716v-15.302c-11.247 0-20.395-9.149-20.395-20.396v-30.581c0-11.247 9.148-20.395 20.395-20.395h91.792c11.247 0 20.395 9.148 20.395 20.395v30.605c0 11.247-9.148 20.395-20.395 20.395h-64.181l-18.91 18.91a5.071 5.071 0 0 1-3.584 1.486Zm-5.117-81.582c-5.635 0-10.209 4.574-10.209 10.21v30.605c0 5.635 4.574 10.209 10.209 10.209h5.093a5.102 5.102 0 0 1 5.093 5.093v8.087l11.695-11.694a5.085 5.085 0 0 1 3.608-1.486h66.303c5.635 0 10.209-4.574 10.209-10.209v-30.629c0-5.635-4.574-10.209-10.209-10.209h-91.792v.023Zm-45.883 20.396a5.125 5.125 0 0 1-3.608-1.486l-18.91-18.91h-64.181c-11.247 0-20.395-9.148-20.395-20.395v-30.605c0-11.247 9.148-20.396 20.395-20.396h91.792c11.247 0 20.395 9.149 20.395 20.396v30.605c0 11.247-9.148 20.395-20.395 20.395v15.303c0 2.075-1.25 3.914-3.16 4.715a5.419 5.419 0 0 1-1.933.378Zm-86.699-81.606c-5.635 0-10.209 4.575-10.209 10.21v30.605c0 5.635 4.574 10.209 10.209 10.209h66.303c1.344 0 2.641.543 3.608 1.486l11.695 11.695v-8.088a5.102 5.102 0 0 1 5.093-5.093h5.093c5.635 0 10.209-4.574 10.209-10.209v-30.605c0-5.635-4.574-10.21-10.209-10.21h-91.792Z" fill="#424143"></path><path d="M150.266 148.097c-4.221 0-7.64-3.443-7.64-7.64 0-4.197 3.443-7.639 7.64-7.639 4.22 0 7.639 3.442 7.639 7.639s-3.419 7.64-7.639 7.64Zm0-10.186a2.55 2.55 0 0 0-2.547 2.546 2.567 2.567 0 0 0 2.547 2.547 2.55 2.55 0 0 0 2.546-2.547 2.566 2.566 0 0 0-2.546-2.546Zm30.581 10.186c-4.22 0-7.639-3.443-7.639-7.64 0-4.197 3.442-7.639 7.639-7.639s7.64 3.442 7.64 7.639-3.419 7.64-7.64 7.64Zm0-10.186a2.55 2.55 0 0 0-2.546 2.546 2.566 2.566 0 0 0 2.546 2.547 2.567 2.567 0 0 0 2.547-2.547 2.55 2.55 0 0 0-2.547-2.546Zm30.605 10.186c-4.22 0-7.639-3.443-7.639-7.64 0-4.197 3.442-7.639 7.639-7.639s7.64 3.442 7.64 7.639-3.419 7.64-7.64 7.64Zm0-10.186a2.55 2.55 0 0 0-2.546 2.546 2.566 2.566 0 0 0 2.546 2.547 2.567 2.567 0 0 0 2.547-2.547 2.55 2.55 0 0 0-2.547-2.546Zm71.396 71.396c-4.221 0-7.64-3.443-7.64-7.64 0-4.22 3.443-7.639 7.64-7.639 4.22 0 7.639 3.442 7.639 7.639.024 4.197-3.419 7.64-7.639 7.64Zm0-10.21a2.55 2.55 0 0 0-2.547 2.546 2.552 2.552 0 0 0 2.547 2.547 2.55 2.55 0 0 0 2.546-2.547 2.55 2.55 0 0 0-2.546-2.546Zm30.605 10.21c-4.221 0-7.64-3.443-7.64-7.64 0-4.22 3.443-7.639 7.64-7.639 4.22 0 7.639 3.442 7.639 7.639s-3.419 7.64-7.639 7.64Zm0-10.21a2.55 2.55 0 0 0-2.547 2.546 2.552 2.552 0 0 0 2.547 2.547 2.55 2.55 0 0 0 2.546-2.547 2.55 2.55 0 0 0-2.546-2.546Zm30.605 10.21c-4.221 0-7.64-3.443-7.64-7.64 0-4.22 3.443-7.639 7.64-7.639 4.22 0 7.639 3.442 7.639 7.639s-3.442 7.64-7.639 7.64Zm0-10.21a2.55 2.55 0 0 0-2.547 2.546 2.552 2.552 0 0 0 2.547 2.547 2.55 2.55 0 0 0 2.546-2.547 2.566 2.566 0 0 0-2.546-2.546Z" fill="#424143"></path><path d="M53.853 313.618a6.137 6.137 0 0 1-5.21-2.877 164.234 164.234 0 0 1-13.417-26.29c-1.273-3.136.26-6.72 3.396-7.993 3.136-1.273 6.72.26 7.993 3.395a152.51 152.51 0 0 0 12.426 24.333c1.815 2.877.943 6.65-1.934 8.465a5.944 5.944 0 0 1-3.254.967Zm127.183 75.121c-1.627 0-3.23-.023-4.857-.071-38.009-1.249-73.235-17.212-99.219-44.964-2.31-2.476-2.193-6.366.283-8.677s6.366-2.193 8.677.283c23.744 25.347 55.952 39.942 90.659 41.098 20.867.683 40.956-3.443 59.701-12.308 3.066-1.439 6.72-.142 8.158 2.923 1.439 3.065.142 6.72-2.923 8.158-19.075 9.007-39.4 13.558-60.479 13.558Z" fill="#51B7C9"></path></svg>