<svg xmlns="http://www.w3.org/2000/svg" width="418" height="422" fill="none"><path d="M195.395 377.068c72.26 0 130.837-58.578 130.837-130.838 0-72.259-58.577-130.837-130.837-130.837-72.259 0-130.837 58.578-130.837 130.837 0 72.26 58.578 130.838 130.837 130.838Z" fill="#DCDDDE"></path><path d="M318.899 355.611a6.078 6.078 0 0 1-3.984-1.462 6.154 6.154 0 0 1-.708-8.653 153.584 153.584 0 0 0 15.774-22.305c1.698-2.924 5.447-3.914 8.394-2.217 2.924 1.698 3.914 5.447 2.217 8.394a165.916 165.916 0 0 1-17.048 24.098c-1.178 1.414-2.9 2.145-4.645 2.145Zm31.973-62.506c-.66 0-1.344-.118-2.028-.354-3.206-1.108-4.881-4.621-3.772-7.805 11.435-32.797 9.384-68.094-5.73-99.383-9.078-18.792-22.093-34.66-38.622-47.157a6.137 6.137 0 0 1-1.202-8.606 6.136 6.136 0 0 1 8.606-1.203c18.108 13.676 32.35 31.03 42.276 51.614 16.552 34.236 18.769 72.857 6.272 108.767a6.16 6.16 0 0 1-5.8 4.127Z" fill="#00B9CC"></path><path d="M259.434 308.313h-112.28c-14.077 0-25.512-11.436-25.512-25.512v-20.419a5.086 5.086 0 0 1 5.093-5.093h153.118a5.086 5.086 0 0 1 5.093 5.093v20.419c.024 14.076-11.435 25.512-25.512 25.512Zm-127.583-40.815v15.303c0 8.441 6.861 15.302 15.303 15.302h112.28c8.442 0 15.303-6.861 15.303-15.302v-15.303H131.851ZM279.853 104.17H126.758a5.087 5.087 0 0 1-5.093-5.093v-20.42c0-14.075 11.436-25.511 25.512-25.511h112.281c14.076 0 25.512 11.436 25.512 25.512v20.419c0 2.806-2.287 5.093-5.117 5.093ZM131.851 93.96H274.76V78.658c0-8.441-6.861-15.303-15.302-15.303H147.153c-8.441 0-15.302 6.862-15.302 15.303V93.96Z" fill="#424143"></path><path d="M279.853 267.498H126.758a5.087 5.087 0 0 1-5.093-5.093V99.077a5.087 5.087 0 0 1 5.093-5.093h153.119a5.087 5.087 0 0 1 5.093 5.093v163.328c0 2.806-2.287 5.093-5.117 5.093Zm-148.002-10.209H274.76V104.17H131.851v153.119Zm71.443 33.175c-4.221 0-7.663-3.443-7.663-7.663 0-4.221 3.442-7.663 7.663-7.663s7.663 3.442 7.663 7.663c0 4.22-3.442 7.663-7.663 7.663Zm0-10.21a2.55 2.55 0 0 0-2.546 2.547 2.566 2.566 0 0 0 2.546 2.546 2.566 2.566 0 0 0 2.546-2.546 2.55 2.55 0 0 0-2.546-2.547ZM213.503 84.01h-20.395a5.363 5.363 0 0 1-5.352-5.352 5.363 5.363 0 0 1 5.352-5.352h20.419a5.363 5.363 0 0 1 5.352 5.352c0 2.947-2.405 5.352-5.376 5.352Z" fill="#424143"></path><path d="M181.743 221.567a9.796 9.796 0 0 1-4.998-1.367c-3.136-1.816-4.999-5.046-4.999-8.677v-61.611c0-3.631 1.863-6.861 4.999-8.677 3.136-1.815 6.885-1.815 10.02 0l53.359 30.794c3.136 1.815 4.998 5.046 4.998 8.677 0 3.631-1.862 6.861-4.998 8.677L186.742 220.2a9.926 9.926 0 0 1-4.999 1.367Zm.189-71.325v60.951l52.792-30.487-52.792-30.464Zm53.052 30.652 2.546-4.409-2.546 4.409Z" fill="#424143"></path></svg>