<svg xmlns="http://www.w3.org/2000/svg" width="418" height="421" fill="none"><path d="M209.495 347.506c77.039 0 139.491-62.432 139.491-139.446 0-77.013-62.452-139.445-139.491-139.445-77.038 0-139.49 62.432-139.49 139.445 0 77.014 62.452 139.446 139.49 139.446Z" fill="#00B9CC"></path><path d="M367 143.523c8.606 20.389 13.392 42.805 13.392 66.305 0 94.26-76.724 170.96-171.015 170.96-94.29 0-171.015-76.7-171.015-170.96s76.725-170.96 171.015-170.96c42.63 0 81.676 15.675 111.644 41.556l24.239-20.955C309.256 26.918 261.58 7.071 209.354 7.071c-111.833 0-202.8 90.96-202.8 202.734 0 111.773 90.967 202.733 202.8 202.733 111.833 0 202.798-90.936 202.798-202.733 0-31.491-7.215-61.332-20.088-87.943L367 143.523Z" fill="#CCCECF"></path><path d="M207.963 258.314c-.849-.024-1.722.33-2.264 1.084-.047.071-5.635 7.613-14.713 7.613h-.024c-8.158 0-16.67-5.987-25.299-17.772-15.374-21.073-15.845-45.233-9.479-59.87 4.504-10.348 15.02-16.264 23.956-16.264 15.585 0 19.829 6.458 22.824 10.913.094.259.212.472.354.684.141.283.306.565.518.801m-23.696 2.522c-2.877 0-8.111 2.334-10.304 7.331-2.806 6.458-3.678 16.051-1.061 26.305m79.247-46.105c4.834 2.64 8.89 7.378 11.695 13.836 6.367 14.614 5.919 38.798-9.478 59.87-8.606 11.786-17.118 17.773-25.276 17.773h-.024c-9.078-.024-14.666-7.543-14.713-7.614-.542-.754-1.415-1.107-2.263-1.084m-4.551-72.834s8.677-24.042 29.662-26.8c16.905-2.216 27.822 7.024 27.822 7.024s-3.56 1.791-8.04 5.516c-4.338 3.582-9.526 9.051-15.185 13.435-10.799 8.391-27.021 11.738-34.259.825Zm0 0s-3.042-23.241-19.5-36.299" stroke="#fff" stroke-width="7" stroke-miterlimit="10" stroke-linecap="round" stroke-linejoin="round"></path></svg>