<svg xmlns="http://www.w3.org/2000/svg" width="418" height="422" fill="none"><path d="M186.695 358.441c72.259 0 130.837-58.578 130.837-130.838 0-72.259-58.578-130.837-130.837-130.837-72.26 0-130.837 58.578-130.837 130.837 0 72.26 58.577 130.838 130.837 130.838Z" fill="#DCDDDE"></path><path d="M384.188 134.846c-9.337-10.116-48.595-46.733-62.011-57.438l-1.839-1.485c-3.608-2.948-6.437-5.282-12.379-5.282-6.932 0-14.996 4.999-16.293 14.265-.283 2.028-.471 4.339-.683 6.744-.802 9.714-1.722 20.725-9.88 26.431-6.555 4.598-12.709 6.296-19.146 7.121-7.71-10.775-25.111-16.411-33.245-16.411-15.845 0-18.816 10.917-18.84 32.421-.023.141-.047.684-.141 1.58-3.042.141-5.989 1.084-8.559 2.853-3.584 2.499-5.989 6.224-6.767 10.539-.684 3.773.071 7.451 1.768 10.587-3.018 1.98-5.305 4.857-6.484 8.323-1.273 3.749-1.037 7.64.307 11.082-3.183 1.58-5.777 4.079-7.38 7.309-1.58 3.183-1.981 6.626-1.439 9.903-4.102 1.038-7.592 3.561-9.832 7.168-3.49 5.612-3.136 12.544.354 17.731a56.353 56.353 0 0 1-4.291 3.301c-35.109 24.758-38.905 32.114-39.235 45.601-3.49 2.759-5.47 7.757-5.47 14.147 0 9.102 10.327 24.522 49.043 24.522 24.899 0 47.558-6.909 69.297-21.103 16.694-10.917 34.519-27.61 56.094-52.556 9.832-11.365 18.909-15.161 30.416-19.995 7.899-3.301 16.858-7.074 27.351-13.864l1.485-.967c25.842-16.764 38.811-25.158 38.811-45.294-.048-14.195-4.787-20.49-11.012-27.233Zm-67.528 45.317a1390.556 1390.556 0 0 0-8.347 5.636c2.806-42.536 22.753-66.374 33.67-76.348a1436.148 1436.148 0 0 1 19.617 18.368c3.82 18.839-4.692 25.3-44.94 52.344Zm-14.808-87.594c.189-2.216.354-4.291.613-6.154.472-3.324 3.561-4.88 5.494-4.88 1.934 0 2.193.141 5.47 2.805l1.957 1.58c4.103 3.278 10.917 9.266 18.533 16.151-12.968 12.12-35.981 40.744-36.759 91.296-1.721 1.179-3.419 2.358-5.211 3.584-14.1 9.715-21.456 17.166-27.209 24.216 3.041-70.123 24.851-95.611 26.549-97.498 8.677-8.794 9.762-21.503 10.563-31.1Zm-73.14 27.116c4.432 0 12.567 2.546 18.65 6.578-7.922.542-16.623 1.745-26.361 6.083.779-12.614 3.443-12.661 7.711-12.661Zm-21.339 34.919a5.28 5.28 0 0 1 3.089-.966c.354 0 .731.047 1.108.094l2.146.354 9.455 1.509c2.947.542 4.928 3.371 4.385 6.342a5.503 5.503 0 0 1-3.961 4.292c-.778.212-1.556.235-2.476.07l-11.624-1.862c-2.947-.543-4.928-3.372-4.385-6.343a5.396 5.396 0 0 1 2.263-3.49Zm.472 56.683c-.802-.023-1.58-.212-2.405-.613l-10.634-5.022c-2.688-1.344-3.796-4.622-2.452-7.309.66-1.297 1.768-2.288 3.136-2.736a5.245 5.245 0 0 1 1.697-.283c.849 0 1.721.213 2.57.614l10.634 5.022c2.688 1.344 3.796 4.621 2.452 7.309-.943 1.886-2.9 3.042-4.998 3.018Zm-7.876-32.68a5.338 5.338 0 0 1 2.759-3.136 5.413 5.413 0 0 1 2.358-.542c.613 0 1.25.118 1.91.33l11.223 3.56a5.448 5.448 0 0 1 3.419 6.909c-.66 1.981-2.452 3.419-4.551 3.678-.801.071-1.579 0-2.452-.283l-11.223-3.56c-2.877-1.014-4.409-4.103-3.443-6.956Zm-19.428 37.726c.754-1.25 1.98-2.099 3.395-2.429a5.453 5.453 0 0 1 1.226-.141c1.014 0 2.028.283 2.995.872l10.115 6.013a5.488 5.488 0 0 1 2.428 3.395 5.342 5.342 0 0 1-.683 4.103c-1.109 1.792-3.184 2.806-5.258 2.523a5.423 5.423 0 0 1-2.335-.849l-10.115-6.013c-2.57-1.556-3.348-4.928-1.768-7.474Zm-6.885 24.168c2.24-1.603 4.409-3.372 6.531-5.258l6.555 3.89a16.263 16.263 0 0 0 6.72 2.358c.636.071 1.273.118 1.886.118 5.588 0 10.917-2.9 13.911-7.71a16.268 16.268 0 0 0 2.075-12.143c4.81-1.037 9.007-4.173 11.247-8.677 2.287-4.598 2.122-9.738.118-14.1 4.291-1.792 7.71-5.329 9.243-9.832 1.65-4.881.802-9.95-1.792-14.006 4.197-2.358 7.262-6.484 8.135-11.341 1.603-8.866-4.315-17.377-13.299-19.028l-3.607-.566c11.577-6.319 21.197-6.885 31.312-7.427 6.248-.33 12.638-.731 19.24-2.57-8.394 17.613-18.25 49.35-18.485 101.458-6.555 8.088-15.515 17.283-34.567 30.629-.33.236-.66.401-.99.636-2.641-2.688-6.861-5.871-13.44-7.993-10.162-3.277-22.305-3.159-33.057-3.112l-4.668.024c-4.716 0-7.687-1.344-9.856-3.089 4.433-3.372 9.903-7.404 16.788-12.261ZM148.45 259.93c3.584 3.395 9.125 6.908 18.297 6.908l4.763-.023c9.903-.071 21.127-.166 29.615 2.57 3.136 1.013 5.423 2.31 7.05 3.536-16.552 8.866-30.487 10.281-40.225 10.281h-.708c-13.251-.071-22.8-3.844-28.176-6.225.142-5.447 1.368-9.62 9.384-17.047Zm201.95-61.635-1.485.967c-9.667 6.272-17.778 9.667-25.63 12.945-11.813 4.951-22.965 9.62-34.448 22.918-20.914 24.168-38.009 40.225-53.806 50.552-20.184 13.181-40.296 19.311-63.332 19.311-31.36 0-38.15-10.917-38.15-13.628 0-2.193.353-3.702.707-4.598 5.8 2.594 17.236 7.215 32.892 7.333 13.204-.165 33.694-1.768 58.003-18.792 26.196-18.344 34.849-29.898 42.489-40.107 6.885-9.172 12.803-17.095 30.463-29.285 9.172-6.319 17.378-11.836 24.64-16.717 32.467-21.81 48.454-32.538 50.387-50.128 1.226 1.25 2.24 2.311 3.042 3.16 5.163 5.611 8.087 9.29 8.087 19.923 0 13.558-8.134 19.476-33.859 36.146Z" fill="#424143"></path><path d="M31.407 255.332a6.132 6.132 0 0 1-6.06-5.235 166.606 166.606 0 0 1-1.721-29.473c.094-3.395 2.923-6.083 6.319-5.942 3.395.095 6.036 2.948 5.941 6.32a153.17 153.17 0 0 0 1.58 27.28c.495 3.348-1.815 6.484-5.163 6.979a5.991 5.991 0 0 1-.896.071Zm140.646 131.426c-21.292 0-41.9-4.715-61.328-14.005-34.283-16.434-60.125-45.224-72.74-81.087-1.132-3.206.566-6.696 3.749-7.828a6.124 6.124 0 0 1 7.828 3.749c11.53 32.774 35.132 59.088 66.468 74.108 18.839 9.03 38.881 13.321 59.606 12.755 3.325-.117 6.202 2.571 6.296 5.966a6.12 6.12 0 0 1-5.965 6.295c-1.297.024-2.618.047-3.914.047Z" fill="#00B9CC"></path></svg>