<svg xmlns="http://www.w3.org/2000/svg" width="418" height="422" fill="none"><path d="M208.434 346.557c77.039 0 139.491-62.452 139.491-139.49 0-77.039-62.452-139.491-139.491-139.491-77.038 0-139.49 62.452-139.49 139.491 0 77.038 62.452 139.49 139.49 139.49Z" fill="#00B9CC"></path><path d="M365.939 142.509c8.606 20.395 13.392 42.818 13.392 66.326 0 94.29-76.724 171.015-171.015 171.015-94.29 0-171.015-76.725-171.015-171.015 0-94.291 76.725-171.015 171.015-171.015 42.63 0 81.676 15.68 111.644 41.569l24.239-20.961C308.218 25.889 260.543 6.036 208.316 6.036 96.483 6.036 5.517 97.002 5.517 208.835c0 111.833 90.966 202.799 202.799 202.799 111.833 0 202.799-90.966 202.799-202.799 0-31.501-7.215-61.351-20.089-87.972l-25.087 21.646Z" fill="#CCCECF"></path><path d="M207.161 217.818c-22.305 0-43.172-13.982-43.172-13.982s20.89 13.982 43.172 13.982Zm0 0c22.282 0 43.172-13.982 43.172-13.982s-20.867 13.982-43.172 13.982Zm33.835-48.006c0-17.377 6.154-28.907 6.154-28.907h-79.955s6.154 11.53 6.154 28.907c0 27.234-21.527 41.074-21.527 67.223 0 28.836 18.462 51.495 18.462 51.495h36.9v-24.592s-12.308-38.692-54.301-36.452c41.993-2.24 54.301 36.452 54.301 36.452s12.308-38.692 54.302-36.452c-41.994-2.24-54.302 36.452-54.302 36.452v24.592h36.901s18.462-22.682 18.462-51.495c-.024-26.149-21.551-39.989-21.551-67.223Zm43.054-.141h-24.215l8.96-8.96-.212-.236-9.243 9.243-.094.094 9.337 9.338.212-.213-8.96-8.959h24.215v-.307Zm-138.5-8.96 8.96 8.96h-24.215v.307h24.215l-8.96 8.959.212.213 9.243-9.22.095-.118-9.338-9.337-.212.236Z" stroke="#fff" stroke-width="7" stroke-miterlimit="10" stroke-linecap="round" stroke-linejoin="round"></path><path d="M207.161 197.8a1.532 1.532 0 1 0 0-3.064 1.532 1.532 0 0 0 0 3.064Z" stroke="#fff" stroke-width="7" stroke-miterlimit="10" stroke-linecap="round" stroke-linejoin="round"></path></svg>