<svg xmlns="http://www.w3.org/2000/svg" width="418" height="422" fill="none"><path d="M191.41 345.355c72.26 0 130.838-58.578 130.838-130.838 0-72.259-58.578-130.837-130.838-130.837-72.259 0-130.837 58.578-130.837 130.837 0 72.26 58.578 130.838 130.837 130.838Z" fill="#DCDDDE"></path><path d="M233.663 283.249c-6.673 0-12.921-2.57-17.613-7.262l-91.225-91.249c-4.692-4.692-7.263-10.941-7.263-17.613 0-6.673 2.571-12.921 7.263-17.614 4.692-4.692 10.94-7.262 17.613-7.262s12.921 2.57 17.613 7.262l91.225 91.226c4.692 4.692 7.262 10.94 7.262 17.613s-2.57 12.921-7.262 17.613-10.964 7.286-17.613 7.286Zm-91.249-130.908a14.728 14.728 0 0 0-10.469 4.338c-5.776 5.777-5.776 15.161 0 20.938l91.226 91.225c5.776 5.777 15.161 5.777 20.937 0 5.777-5.776 5.777-15.161 0-20.937l-91.225-91.226c-2.876-2.9-6.673-4.338-10.469-4.338Z" fill="#424143"></path><path d="M191.552 279.146c-8.913 0-17.825-3.395-24.616-10.186l-35.108-35.085c-6.555-6.555-10.163-15.302-10.163-24.616 0-9.313 3.608-18.061 10.163-24.616 1.886-1.886 5.234-1.886 7.144 0l77.196 77.196a5.077 5.077 0 0 1 1.485 3.561c0 1.32-.542 2.617-1.485 3.56-6.791 6.791-15.703 10.186-24.616 10.186Zm-55.787-83.444c-2.617 3.984-4.008 8.653-4.008 13.557 0 6.626 2.57 12.827 7.215 17.472l35.085 35.085c8.417 8.417 21.433 9.478 31.029 3.207l-69.321-69.321Z" fill="#424143"></path><path d="M152.954 282.636c-8.913 0-17.825-3.396-24.616-10.186-6.578-6.579-10.21-15.326-10.21-24.616s3.632-18.038 10.21-24.616a5.037 5.037 0 0 1 7.144 0l42.111 42.111a5.071 5.071 0 0 1 1.486 3.56 5.072 5.072 0 0 1-1.486 3.561c-6.814 6.814-15.726 10.186-24.639 10.186ZM132.252 234.3c-6.272 9.596-5.211 22.612 3.207 31.029 8.417 8.418 21.456 9.479 31.029 3.207L132.252 234.3ZM324.888 192c-6.672 0-12.921-2.57-17.613-7.262L216.05 93.512c-4.692-4.692-7.262-10.94-7.262-17.613 0-6.672 2.57-12.92 7.262-17.613 4.692-4.692 10.94-7.262 17.613-7.262s12.921 2.57 17.613 7.262l91.226 91.225c4.692 4.693 7.262 10.941 7.262 17.614 0 6.672-2.57 12.921-7.262 17.613-4.693 4.692-10.964 7.262-17.614 7.262ZM233.663 61.115a14.726 14.726 0 0 0-10.469 4.339c-5.776 5.777-5.776 15.161 0 20.938l91.226 91.225c5.776 5.777 15.161 5.777 20.937 0 5.777-5.777 5.777-15.161 0-20.938l-91.225-91.225a14.765 14.765 0 0 0-10.469-4.338Z" fill="#424143"></path><path d="M331.891 151.138a5.032 5.032 0 0 1-3.56-1.485l-77.196-77.196a5.076 5.076 0 0 1-1.486-3.56c0-1.321.543-2.618 1.486-3.56 13.581-13.582 35.674-13.582 49.255 0l35.085 35.084c13.581 13.581 13.581 35.674 0 49.255a5.166 5.166 0 0 1-3.584 1.462ZM262.217 69.25l69.321 69.321c6.271-9.597 5.21-22.612-3.207-31.029l-35.085-35.085c-8.417-8.418-21.456-9.479-31.029-3.207Z" fill="#424143"></path><path d="M335.404 112.54a4.961 4.961 0 0 1-3.56-1.485l-42.111-42.111a5.076 5.076 0 0 1-1.486-3.56c0-1.321.543-2.618 1.486-3.561 13.581-13.581 35.674-13.581 49.255 0 6.579 6.578 10.21 15.326 10.21 24.616s-3.631 18.037-10.21 24.616a5.053 5.053 0 0 1-3.584 1.485Zm-34.589-46.803 34.236 34.236c6.272-9.597 5.211-22.612-3.207-31.03-8.417-8.417-21.456-9.478-31.029-3.206Zm-88.207 148.545a5.035 5.035 0 0 1-3.561-1.486l-21.055-21.055a5.038 5.038 0 0 1 0-7.145l63.166-63.167c1.887-1.886 5.235-1.886 7.145 0l21.055 21.056a5.037 5.037 0 0 1 0 7.144l-63.19 63.191a5.052 5.052 0 0 1-3.56 1.462Zm-13.935-26.102 13.911 13.911 56.022-56.022-13.911-13.911-56.022 56.022Z" fill="#424143"></path><path d="M171.322 379.166c-.236 0-.496-.023-.731-.047a165.164 165.164 0 0 1-28.884-6.083c-3.23-.991-5.069-4.433-4.079-7.663a6.142 6.142 0 0 1 7.663-4.079c8.7 2.664 17.684 4.55 26.738 5.635a6.13 6.13 0 0 1 5.376 6.814c-.354 3.136-3.018 5.423-6.083 5.423Zm42.229-1.32a6.125 6.125 0 0 1-6.107-5.683c-.236-3.371 2.287-6.319 5.682-6.554 34.637-2.523 66.232-18.392 88.962-44.658 13.652-15.798 23.06-34.024 27.964-54.16a6.123 6.123 0 0 1 7.404-4.504 6.123 6.123 0 0 1 4.503 7.404c-5.376 22.046-15.679 41.993-30.605 59.277-24.851 28.765-59.441 46.119-97.355 48.878h-.448Z" fill="#00B9CC"></path></svg>